# xmcd CD database file
#
# Track frame offsets:
#	300
#	19334
#	34890
#	38798
#	57624
#	76789
#	80052
#	97030
#	113206
#	116871
#	136211
#	151798
#
# Disc length: 2247 seconds
#
# Revision: 0
# Processed by: cddbd v1.5.2PL0 Copyright (c) Steve Scherf et al.
# Submitted via: CDex 1.70beta2
#
DISCID=9f08c30c
DTITLE=Tini Thomsen - MaxSax
DYEAR=2014
DGENRE=Jazz
TTITLE0=MaxSax
TTITLE1=The Bullfinch
TTITLE2=Time Out 1
TTITLE3=Morbus Vine
TTITLE4=Will You?
TTITLE5=Time Out 2
TTITLE6=Stolen
TTITLE7=Field Trip Mystery
TTITLE8=Time Out 3
TTITLE9=West Side Trip
TTITLE10=Six
TTITLE11=Step and Run
EXTD=YEAR: 2014
EXTT0=
EXTT1=
EXTT2=
EXTT3=
EXTT4=
EXTT5=
EXTT6=
EXTT7=
EXTT8=
EXTT9=
EXTT10=
EXTT11=
PLAYORDER=
